# xmcd CD database file
#
# Track frame offsets:
#	150
#	28696
#	46670
#	77104
#	88813
#	103297
#	121141
#	165511
#	183416
#	198665
#	215104
#	235586
#	252003
#	265724
#
# Disc length: 4586 seconds
#
# Revision: 1
# Processed by: cddbd v1.5.2PL0 Copyright (c) Steve Scherf et al.
# Submitted via: CDex 1.51
#
DISCID=b911e80e
DTITLE=Oscar Peterson - Ben Webster Meets Oscar Peterson Disk 1
DYEAR=1900
DGENRE=Jazz
TTITLE0=The Touch Of Your Lips
TTITLE1=When Your Lover Has Gone
TTITLE2=Bye Bye Blackbird
TTITLE3=How Deep Is The Ocean
TTITLE4=In The Wee Small Hours Of The Morning
TTITLE5=Sunday
TTITLE6=This Can't Be Love
TTITLE7=Poutin'
TTITLE8=Cotton Tail
TTITLE9=Danny Boy (Londerry Air)
TTITLE10=Bounce Blues
TTITLE11=Bounce Blus (Alt. Take)
TTITLE12=Tenderly
TTITLE13=Ballad Medley (All The Things You Are, Dearly Beloved, The Nearness Of You, I'll Get By, Everything Happens To Me, The Man I Love, What's New?, Someone To Watch Over Me, Isn't It Romantic
EXTD=
EXTT0=
EXTT1=
EXTT2=
EXTT3=
EXTT4=
EXTT5=
EXTT6=
EXTT7=
EXTT8=
EXTT9=
EXTT10=
EXTT11=
EXTT12=
EXTT13=
PLAYORDER=
